<svg width="200" height="200" viewBox="0 0 200 200" fill="none" xmlns="http://www.w3.org/2000/svg">
<path d="M199.1 159.42L198.105 156.42C195.747 149.411 188.019 142.101 180.92 140.175L154.644 132.996C147.518 131.057 137.354 133.664 132.141 138.878L122.631 148.39C88.0711 139.049 60.9706 111.943 51.6445 77.3831L61.1541 67.8716C66.3675 62.6573 68.9738 52.5045 67.0352 45.3776L59.8703 19.0841C57.9317 11.9702 50.6096 4.24094 43.6152 1.90878L40.6158 0.900115C33.608 -1.43205 23.6138 0.926526 18.4008 6.14045L4.17572 20.3812C1.63441 22.9095 0.0102072 30.1412 0.0102072 30.1676C-0.487324 75.3393 17.2218 118.86 49.1685 150.813C81.0369 182.687 124.386 200.374 169.419 199.994C169.655 199.994 177.095 198.395 179.636 195.867L193.861 181.639C199.074 176.425 201.432 166.429 199.1 159.42Z" fill="#F0B426"/>
</svg>
